<?xml version="1.0" encoding="UTF-8" standalone="no"?>
<!-- Created with Inkscape (http://www.inkscape.org/) -->

<svg
   xmlns:dc="http://purl.org/dc/elements/1.1/"
   xmlns:cc="http://creativecommons.org/ns#"
   xmlns:rdf="http://www.w3.org/1999/02/22-rdf-syntax-ns#"
   xmlns:svg="http://www.w3.org/2000/svg"
   xmlns="http://www.w3.org/2000/svg"
   xmlns:sodipodi="http://sodipodi.sourceforge.net/DTD/sodipodi-0.dtd"
   xmlns:inkscape="http://www.inkscape.org/namespaces/inkscape"
   width="1920"
   height="1080"
   viewBox="0 0 1920 1080"
   id="svg4173"
   version="1.1"
   inkscape:version="0.91 r13725"
   sodipodi:docname="logo-outline.svg">
  <defs
     id="defs4175" />
  <sodipodi:namedview
     id="base"
     pagecolor="#ffffff"
     bordercolor="#666666"
     borderopacity="1.0"
     inkscape:pageopacity="0.0"
     inkscape:pageshadow="2"
     inkscape:zoom="0.43467947"
     inkscape:cx="1337.3845"
     inkscape:cy="561.05791"
     inkscape:document-units="px"
     inkscape:current-layer="layer1"
     showgrid="false"
     inkscape:window-width="1920"
     inkscape:window-height="1017"
     inkscape:window-x="-8"
     inkscape:window-y="-8"
     inkscape:window-maximized="1"
     units="px" />
  <metadata
     id="metadata4178">
    <rdf:RDF>
      <cc:Work
         rdf:about="">
        <dc:format>image/svg+xml</dc:format>
        <dc:type
           rdf:resource="http://purl.org/dc/dcmitype/StillImage" />
        <dc:title />
      </cc:Work>
    </rdf:RDF>
  </metadata>
  <g
     inkscape:label="レイヤー 1"
     inkscape:groupmode="layer"
     id="layer1"
     transform="translate(0,27.637839)">
    <g
       id="g5916"
       transform="translate(-4.0668287,0)"
       style="stroke:#ffffff">
      <path
         id="path5687"
         d="m 1694.1035,767.41251 c -6.444,-1.63564 -10.1593,-3.88099 -14.6544,-8.85659 -8.5619,-9.47721 -8.6157,-23.52037 -0.1259,-32.91781 10.0581,-11.13301 24.2479,-10.1005 38.7994,2.82331 10.7206,9.52138 16.9154,10.73032 27.2688,5.3217 10.1852,-5.32084 20.7184,-22.29196 24.4187,-39.34317 3.2793,-15.11098 1.5144,-20.72413 -27.649,-87.93298 -10.2419,-23.60313 -22.8861,-52.46377 -28.0982,-64.13472 -5.212,-11.671 -9.4765,-21.46647 -9.4765,-21.76773 0,-0.30151 8.1989,-0.40821 18.2197,-0.2376 l 18.2201,0.31019 15.972,37.26812 c 25.4854,59.46628 30.4915,69.96488 34.0034,71.31254 4.4936,1.72436 6.4161,-2.1897 30.0352,-61.1485 l 19.0014,-47.43216 8.5397,-0.33066 8.5396,-0.33067 -1.8323,4.28318 c -1.0077,2.35572 -18.2868,45.33285 -38.3978,95.50461 -20.1112,50.1719 -38.8219,95.91004 -41.5796,101.64039 -11.2347,23.34661 -27.1503,37.97517 -48.1347,44.24246 -7.429,2.21873 -27.0858,3.24441 -33.0698,1.72547 z"
         style="fill:none;fill-opacity:1;fill-rule:nonzero;stroke:#ffffff;stroke-width:1.24076521;stroke-linejoin:miter;stroke-miterlimit:4;stroke-dasharray:none;stroke-opacity:1"
         inkscape:connector-curvature="0" />
      <path
         id="path5685"
         d="m 59.142247,694.03061 c 0,-7.90535 0,-7.90535 2.25869,-5.64666 2.191876,2.19182 3.764476,2.25869 53.153083,2.25869 57.24947,0 57.45754,-0.031 57.50468,-8.01268 0.031,-5.17231 -3.24764,-6.81223 -15.55013,-7.77897 -6.14954,-0.48327 -12.24207,-1.44648 -13.53898,-2.14057 -4.27227,-2.28641 -7.22398,-7.79324 -7.84431,-14.63458 -0.73261,-8.0793 1.05627,-15.16184 13.30361,-52.67072 8.26182,-25.30287 9.63728,-28.63351 13.36366,-32.35991 2.42526,-2.42532 6.1269,-4.68519 8.89487,-5.43051 3.31401,-0.89243 22.33569,-1.17997 63.2019,-0.95558 68.21138,0.37472 63.2567,-0.50127 69.66866,12.31547 2.22115,4.43989 4.0385,8.76365 4.0385,9.60848 0,0.84477 -19.64795,26.69482 -43.66209,57.44445 l -43.6621,55.90845 -80.56505,0 -80.564993,0 0,-7.90536 z"
         style="fill:none;fill-opacity:1;fill-rule:nonzero;stroke:#ffffff;stroke-width:1.24076521;stroke-linejoin:miter;stroke-miterlimit:4;stroke-dasharray:none;stroke-opacity:1"
         inkscape:connector-curvature="0" />
      <path
         id="path5683"
         d="m 665.40537,698.59892 c -17.6345,-3.23374 -30.42381,-9.57821 -42.82514,-21.24444 -17.72166,-16.67129 -27.91826,-37.08597 -33.41225,-66.89479 -1.47837,-8.02106 -1.96264,-16.42904 -1.91878,-33.31549 0.0621,-23.54934 1.06476,-31.41784 6.23025,-48.84383 l 2.42707,-8.18768 21.24226,0 21.24228,0 -2.73757,7.27305 c -5.88414,15.63264 -7.77054,28.60044 -7.81334,53.71118 -0.0435,25.32904 1.17128,34.0438 7.20164,51.67985 10.13576,29.64244 31.47611,46.5725 58.70489,46.5725 18.0223,0 38.98397,-11.53764 46.6921,-25.70017 6.69833,-12.30702 6.91218,-14.66087 6.97614,-76.7858 l 0.0558,-56.74783 17.22238,-10e-4 17.22245,-0.002 0.0249,59.00786 c 0.0124,32.75546 0.51863,62.44065 1.1379,66.72377 1.47614,10.21025 4.93583,17.94642 10.12049,22.6305 5.04892,4.56136 8.90528,5.9236 20.86222,7.36922 9.55086,1.15471 11.90117,2.67012 11.90117,7.67375 0,1.43408 -1.01643,3.62391 -2.25869,4.86616 -2.15793,2.15788 -3.76442,2.25869 -36.0137,2.25869 -38.55957,0 -37.55306,0.24133 -39.96393,-9.58628 -0.81189,-3.30962 -2.08077,-5.76316 -3.07599,-5.94773 -0.93169,-0.17308 -5.50552,2.57174 -10.16403,6.09904 -9.34873,7.07863 -20.68424,12.76835 -31.05679,15.58874 -7.87526,2.14131 -30.36295,3.20737 -38.0238,1.80251 z"
         style="fill:none;fill-opacity:1;fill-rule:nonzero;stroke:#ffffff;stroke-width:1.24076521;stroke-linejoin:miter;stroke-miterlimit:4;stroke-dasharray:none;stroke-opacity:1"
         inkscape:connector-curvature="0" />
      <path
         id="path5681"
         d="m 903.88654,699.02513 c -1.55281,-0.2767 -5.87257,-1.05229 -9.59935,-1.72336 C 862.1,691.50547 833.9225,666.19206 821.29573,631.72931 809.98894,600.86919 809.71132,556.06013 820.6357,525.19505 l 1.59885,-4.51738 18.88879,-0.31019 18.88878,-0.3102 -0.82387,2.5687 c -3.62377,11.29772 -3.6268,18.90913 -0.0104,23.11614 l 2.72473,3.16866 49.50706,0.34556 c 33.9369,0.23698 50.85602,-0.0496 53.79605,-0.90849 7.66543,-2.24157 10.24639,-10.12595 7.67156,-23.43558 l -0.92855,-4.79971 14.91316,0 14.91314,0 1.3753,3.01834 c 2.0524,4.50454 6.8895,25.22849 6.8911,29.52432 9e-4,2.05955 -0.5477,4.77062 -1.2187,6.02467 -2.8749,5.3717 -4.3473,5.47654 -76.95012,5.48107 -66.29135,0.004 -68.17704,0.0639 -71.81712,2.28338 -6.81339,4.15396 -8.42719,13.1938 -5.76823,32.3112 7.44028,53.49312 51.22822,89.61582 95.04724,78.40879 19.01844,-4.86411 34.61096,-16.24266 54.68303,-39.90486 4.2017,-4.95301 7.7605,-5.46855 9.6173,-1.3932 2.8136,6.1751 -3.3237,17.19484 -17.69327,31.76892 -20.39755,20.68791 -43.69978,30.51787 -74.55163,31.44937 -8.07471,0.24381 -15.9519,0.21714 -17.50472,-0.0621 z"
         style="fill:none;fill-opacity:1;fill-rule:nonzero;stroke:#ffffff;stroke-width:1.24076521;stroke-linejoin:miter;stroke-miterlimit:4;stroke-dasharray:none;stroke-opacity:1"
         inkscape:connector-curvature="0" />
      <path
         id="path5679"
         d="m 1321.7414,698.08972 c -9.2755,-2.08846 -14.043,-4.50039 -20.1058,-10.17143 -14.1758,-13.25974 -15.9874,-25.95085 -16.0153,-112.18546 l -0.019,-55.61984 16.6578,10e-4 16.6576,9.9e-4 0,64.65355 c 0,59.35193 0.1675,65.16293 2.0443,70.86493 7.3745,22.40779 29.29,29.80194 53.2985,17.9826 3.8072,-1.87431 11.4223,-6.94128 16.9225,-11.25988 10.2656,-8.06051 12.5904,-9.10337 13.7216,-6.15551 1.4843,3.86785 -1.3418,8.33696 -11.848,18.73662 -9.3041,9.20995 -12.5489,11.61728 -21.6489,16.06133 -16.5,8.05784 -34.1694,10.58056 -49.6666,7.0911 z"
         style="fill:none;fill-opacity:1;fill-rule:nonzero;stroke:#ffffff;stroke-width:1.24076521;stroke-linejoin:miter;stroke-miterlimit:4;stroke-dasharray:none;stroke-opacity:1"
         inkscape:connector-curvature="0" />
      <path
         id="path5677"
         d="m 1573.5835,698.08972 c -9.2754,-2.08846 -14.0429,-4.50039 -20.1057,-10.17143 -14.1758,-13.25974 -15.9874,-25.95085 -16.0152,-112.18546 l -0.019,-55.61984 16.6578,10e-4 16.6577,9.9e-4 0,64.65355 c 0,59.35193 0.1675,65.16293 2.0443,70.86493 7.3745,22.40779 29.29,29.80194 53.2985,17.9826 3.8072,-1.87431 11.4223,-6.94128 16.9225,-11.25988 10.2656,-8.06051 12.5904,-9.10337 13.7215,-6.15551 1.4844,3.86785 -1.3417,8.33696 -11.8479,18.73662 -9.3041,9.20995 -12.549,11.61728 -21.6491,16.06133 -16.4998,8.05784 -34.1692,10.58056 -49.6664,7.0911 z"
         style="fill:none;fill-opacity:1;fill-rule:nonzero;stroke:#ffffff;stroke-width:1.24076521;stroke-linejoin:miter;stroke-miterlimit:4;stroke-dasharray:none;stroke-opacity:1"
         inkscape:connector-curvature="0" />
      <path
         id="path5675"
         d="m 232.78747,689.79595 c 1.81778,-2.32929 20.7253,-26.59593 42.01665,-53.9259 21.2914,-27.32995 39.31023,-50.33262 40.04191,-51.11703 1.44536,-1.54966 7.06088,11.77044 15.45254,36.65369 7.67024,22.74396 8.24625,30.75236 2.77939,38.64109 -4.57253,6.59813 -8.79914,8.47901 -20.60272,9.16838 -7.95467,0.46466 -10.91135,1.09783 -12.70507,2.72112 -3.01022,2.72423 -2.99167,7.59969 0.0372,10.3429 2.30552,2.0866 6.37604,2.15961 135.23813,2.42464 104.05844,0.21403 133.44913,-0.031 135.57357,-1.12935 4.06722,-2.1031 5.2977,-4.69003 3.99595,-8.40134 -1.57497,-4.49027 -6.62246,-5.84965 -21.99952,-5.92491 -19.8327,-0.0968 -30.23949,-3.60944 -36.1196,-12.19095 -5.36309,-7.82693 -5.68549,-11.65761 -6.41618,-76.2434 l -0.68683,-60.7019 37.44456,0 37.44456,0 0,86.95897 0,86.95897 -177.40089,0 -177.40082,0 3.30509,-4.23498 z"
         style="fill:none;fill-opacity:1;fill-rule:nonzero;stroke:#ffffff;stroke-width:1.24076521;stroke-linejoin:miter;stroke-miterlimit:4;stroke-dasharray:none;stroke-opacity:1"
         inkscape:connector-curvature="0" />
      <path
         id="path5673"
         d="m 1021.9023,689.29344 c -2.9705,-1.68447 -3.9144,-3.18921 -3.9354,-6.27356 -0.031,-4.33927 3.589,-6.73692 11.4329,-7.57531 10.1055,-1.08014 13.6084,-2.38226 17.6544,-6.56265 8.3272,-8.6039 9.1724,-17.32797 9.244,-95.40772 l 0.05,-53.36121 16.9534,0 16.9533,0 -0.8602,4.79972 c -0.4734,2.63979 -0.8429,32.24252 -0.8215,65.78388 0.044,64.89165 0.1904,66.89927 5.5913,75.20675 3.2689,5.02863 8.3212,7.49447 19.2492,9.39482 8.9915,1.56355 12.9648,3.989 12.9361,7.89679 -0.019,3.00103 -1.0442,4.51825 -4.1435,6.1496 -3.4516,1.81674 -97.0931,1.76909 -100.3029,-0.0496 z"
         style="fill:none;fill-opacity:1;fill-rule:nonzero;stroke:#ffffff;stroke-width:1.24076521;stroke-linejoin:miter;stroke-miterlimit:4;stroke-dasharray:none;stroke-opacity:1"
         inkscape:connector-curvature="0" />
      <path
         id="path5671"
         d="m 1159.1167,688.38426 c -5.8003,-5.80033 -0.065,-13.53668 10.0502,-13.55833 9.3678,-0.0186 17.8878,-5.8213 21.2156,-14.44543 1.8979,-4.91827 2.0497,-10.30958 2.0497,-72.78979 l 0,-67.47808 16.5166,1.7e-4 16.5166,1.9e-4 0.7057,3.52918 c 0.3884,1.94104 0.7059,29.09308 0.7059,60.33785 0,33.80756 0.4858,60.38543 1.2,65.64274 2.403,17.68997 7.604,23.19511 24.2034,25.61907 7.2167,1.05378 10.3258,2.01984 11.4504,3.55771 1.6789,2.29591 1.9959,6.03223 0.6793,8.00399 -2.3927,3.5834 -6.0204,3.83942 -54.399,3.83942 -47.13,0 -48.7055,-0.0701 -50.8944,-2.25869 z"
         style="fill:none;fill-opacity:1;fill-rule:nonzero;stroke:#ffffff;stroke-width:1.24076521;stroke-linejoin:miter;stroke-miterlimit:4;stroke-dasharray:none;stroke-opacity:1"
         inkscape:connector-curvature="0" />
      <path
         id="path5669"
         d="m 1408.7002,689.85978 c -3.1875,-1.20596 -5.6466,-4.08348 -5.6466,-6.60744 0,-5.11487 3.2996,-7.28391 12.6612,-8.32343 9.8798,-1.09702 14.9574,-3.56192 18.6622,-9.05964 4.9733,-7.37981 5.0938,-9.06081 5.6473,-78.84305 l 0.531,-66.91323 16.7818,0 16.7816,0 0.3238,68.04257 c 0.2984,62.65163 0.4845,68.39924 2.3543,72.54451 4.1989,9.31057 9.2032,12.54947 21.8719,14.1557 5.1436,0.65214 9.5032,1.8591 10.7319,2.97108 2.7703,2.50708 2.6202,7.44998 -0.3071,10.10001 -2.2504,2.03752 -4.9253,2.16259 -50.5377,2.3626 -26.4889,0.11601 -48.924,-0.0776 -49.8557,-0.42992 z"
         style="fill:none;fill-opacity:1;fill-rule:nonzero;stroke:#ffffff;stroke-width:1.24076521;stroke-linejoin:miter;stroke-miterlimit:4;stroke-dasharray:none;stroke-opacity:1"
         inkscape:connector-curvature="0" />
      <path
         id="path5667"
         d="m 59.142247,600.42103 0,-80.30804 50.255523,0 c 27.78961,0 50.25552,0.43986 50.25552,0.98368 0,0.99869 -18.4835,58.63744 -29.7845,92.87971 -9.56817,28.99172 -16.15999,41.61577 -26.70444,51.14205 -7.401909,6.68716 -13.368688,8.79721 -27.558638,9.74565 -10.896653,0.72827 -12.629503,1.13033 -14.42396,3.3464 -1.970893,2.43395 -2.039505,-0.18177 -2.039505,-77.78945 z"
         style="fill:none;fill-opacity:1;fill-rule:nonzero;stroke:#ffffff;stroke-width:1.24076521;stroke-linejoin:miter;stroke-miterlimit:4;stroke-dasharray:none;stroke-opacity:1"
         inkscape:connector-curvature="0" />
      <path
         id="path5665"
         d="m 398.1863,667.81548 c -2.04037,-0.68087 -5.99004,-3.24516 -8.77704,-5.6984 -8.3042,-7.30966 -13.34686,-19.53641 -37.23177,-90.27448 l -8.27268,-24.50065 10.42664,-13.33214 10.42659,-13.33214 54.02434,-0.29344 54.02428,-0.29345 -0.63236,62.40689 c -0.70922,69.99746 -0.62788,69.28588 -8.86215,77.52016 -7.39993,7.39986 -11.72251,8.38645 -38.26464,8.73312 -14.60102,0.19109 -24.5215,-0.15447 -26.86121,-0.9356 z"
         style="fill:none;fill-opacity:1;fill-rule:nonzero;stroke:#ffffff;stroke-width:1.24076521;stroke-linejoin:miter;stroke-miterlimit:4;stroke-dasharray:none;stroke-opacity:1"
         inkscape:connector-curvature="0" />
      <path
         id="path5663"
         d="m 334.77855,549.29095 c -0.73714,-2.07232 -3.32364,-9.48515 -5.74784,-16.47289 l -4.40763,-12.70507 18.72909,0 c 14.79781,0 18.50571,0.29655 17.66502,1.41168 -4.27896,5.67712 -22.39401,28.81231 -23.50977,30.02497 -1.13269,1.23109 -1.63558,0.81488 -2.72887,-2.25869 z"
         style="fill:none;fill-opacity:1;fill-rule:nonzero;stroke:#ffffff;stroke-width:1.24076521;stroke-linejoin:miter;stroke-miterlimit:4;stroke-dasharray:none;stroke-opacity:1"
         inkscape:connector-curvature="0" />
      <path
         id="path5661"
         d="m 175.86426,550.96859 c -1.33264,-0.26925 -3.34877,-1.51255 -4.48016,-2.76275 -1.99335,-2.20266 -1.97511,-2.594 0.5906,-12.6419 1.4563,-5.70294 3.07866,-11.51239 3.60518,-12.90992 l 0.95731,-2.54103 54.1883,0 54.18832,0 2.30577,7.74225 c 3.73372,12.53719 4.05241,17.22164 1.39494,20.5044 l -2.27489,2.81014 -54.02626,0.14393 c -29.71447,0.0794 -55.11665,-0.0763 -56.44936,-0.34555 z"
         style="fill:none;fill-opacity:1;fill-rule:nonzero;stroke:#ffffff;stroke-width:1.24076521;stroke-linejoin:miter;stroke-miterlimit:4;stroke-dasharray:none;stroke-opacity:1"
         inkscape:connector-curvature="0" />
      <path
         id="path5659"
         d="m 29.779478,511.0783 0,-6.776 6.776069,0 6.775997,0 0,-11.29339 0,-11.29338 -14.681411,0 -14.681359,0 0,-33.31548 0,-33.31541 14.681359,0 14.681411,0 0,-32.18613 0,-32.18613 8.470029,0 8.470019,0 0,-11.85799 0,-11.85806 217.474318,0 217.47431,0 -2.318,3.1057 c -6.31345,8.45861 -0.2314,7.55911 -55.36257,8.18768 -46.67746,0.53229 -49.66305,0.68838 -51.90201,2.71603 -2.68831,2.43458 -3.06612,6.07188 -0.93368,8.98823 2.07189,2.83348 8.7204,4.04875 22.31926,4.07952 22.85006,0.0496 34.28383,5.7569 38.9406,19.43056 0.99033,2.9078 1.6442,7.56731 1.45313,10.35444 -0.32756,4.78377 -3.16116,8.6758 -50.60288,69.51226 l -50.25545,64.44478 -18.87521,0.0186 -18.87513,0.0186 -13.68161,-42.06777 c -31.55576,-97.02678 -43.05318,-131.60281 -45.54912,-136.97911 -3.97249,-8.55675 -6.91229,-10.00398 -18.68969,-9.20089 -5.32711,0.36354 -12.45407,1.49865 -15.83757,2.52309 -11.67821,3.53581 -11.17359,2.51081 -31.40284,63.78445 -9.94051,30.10959 -22.80632,69.8637 -28.59058,88.34248 l -10.5169,33.59775 -57.38025,0 -57.380242,0 0,-6.77601 z"
         style="fill:none;fill-opacity:1;fill-rule:nonzero;stroke:#ffffff;stroke-width:1.24076521;stroke-linejoin:miter;stroke-miterlimit:4;stroke-dasharray:none;stroke-opacity:1"
         inkscape:connector-curvature="0" />
      <path
         id="path5657"
         d="m 160.78264,517.36905 c 0,-2.36566 44.75824,-143.48731 47.87094,-150.93581 0.92916,-2.22344 2.5393,-4.74796 3.57806,-5.61005 4.21129,-3.49505 5.6226,0.1433 34.30059,88.43461 10.53968,32.44842 19.92885,61.157 20.86482,63.79685 l 1.70172,4.79965 -54.15804,0 c -29.78699,0 -54.15809,-0.21837 -54.15809,-0.48513 z"
         style="fill:none;fill-opacity:1;fill-rule:nonzero;stroke:#ffffff;stroke-width:1.24076521;stroke-linejoin:miter;stroke-miterlimit:4;stroke-dasharray:none;stroke-opacity:1"
         inkscape:connector-curvature="0" />
      <path
         id="path5655"
         d="m 382.24774,475.78653 c 18.06591,-23.13729 41.82011,-53.58604 52.78717,-67.66388 l 19.94003,-25.59606 0.73497,9.22069 c 0.40449,5.07131 0.78534,35.52006 0.84695,67.66382 l 0.11228,58.4432 -53.63411,0 -53.63419,0 32.84709,-42.06777 z"
         style="fill:none;fill-opacity:1;fill-rule:nonzero;stroke:#ffffff;stroke-width:1.24076521;stroke-linejoin:miter;stroke-miterlimit:4;stroke-dasharray:none;stroke-opacity:1"
         inkscape:connector-curvature="0" />
      <path
         id="path5653"
         d="m 494.29107,445.85909 c 0.82188,-81.78845 0.72976,-80.88933 9.11845,-88.96621 6.34316,-6.10742 11.54997,-7.45669 32.31306,-8.37343 10.10225,-0.44606 18.57363,-1.35349 20.0324,-2.1459 2.94874,-1.60177 4.50907,-6.51434 2.8921,-9.10567 -2.60281,-4.17126 -5.8494,-4.5912 -35.62839,-4.6082 l -29.07925,-0.0186 5.26209,-6.77599 5.26202,-6.77601 40.47493,0 40.47494,0 0,11.85799 0,11.85806 -8.47002,0 -8.47002,0 0,32.18612 0,32.18614 -14.68142,0 -14.68135,0 0,33.31541 0,33.31548 14.68135,0 14.68142,0 0,11.29338 0,11.29332 -6.77607,0 -6.776,0 0,6.77607 0,6.77601 6.776,0 6.77607,0 0,3.9527 0,3.95264 -37.45293,0 -37.45287,0 0.72349,-71.99522 z"
         style="fill:none;fill-opacity:1;fill-rule:nonzero;stroke:#ffffff;stroke-width:1.24076521;stroke-linejoin:miter;stroke-miterlimit:4;stroke-dasharray:none;stroke-opacity:1"
         inkscape:connector-curvature="0" />
      <path
         id="path5651"
         d="m 580.89605,516.69276 c 0,-1.94782 6.81379,-14.81083 11.64842,-21.98983 5.93496,-8.81297 18.71018,-21.48776 27.51869,-27.30261 15.86976,-10.47609 36.28785,-15.89246 55.13259,-14.62521 13.42155,0.9026 19.42642,2.64594 35.14021,10.20201 7.22386,3.47364 14.00948,6.31568 15.07908,6.31568 1.06966,0 2.91295,-1.06997 4.09619,-2.37774 2.02307,-2.23598 2.15137,-4.57563 2.15137,-39.24447 0,-46.13376 -1.1008,-51.72006 -12.20932,-61.95947 -7.38223,-6.80473 -14.80182,-8.42157 -26.81944,-5.84425 -4.84563,1.0392 -6.10816,0.96549 -7.51234,-0.43861 -2.26166,-2.26161 -1.00768,-5.78407 2.65281,-7.45192 4.5739,-2.08405 49.39102,-16.50453 61.78676,-19.88071 13.51113,-3.68005 15.98596,-3.31384 16.94811,2.50758 0.932,5.63897 0.9196,94.89974 -0.0186,144.10458 l -0.7475,39.14663 -17.1225,0 -17.12249,0 -1.28022,-6.884 c -1.84887,-9.94164 -5.39863,-16.47327 -13.1675,-24.22805 -9.89535,-9.87748 -19.8239,-13.97647 -33.99287,-14.03381 -22.40698,-0.0905 -42.95387,13.98809 -57.23408,39.21687 l -3.35596,5.92899 -20.78499,0 c -13.48792,0 -20.78492,-0.40758 -20.78492,-1.16154 z"
         style="fill:none;fill-opacity:1;fill-rule:nonzero;stroke:#ffffff;stroke-width:1.24076521;stroke-linejoin:miter;stroke-miterlimit:4;stroke-dasharray:none;stroke-opacity:1"
         inkscape:connector-curvature="0" />
      <path
         id="path5649"
         d="m 807.98113,514.77584 c 2.35473,-6.23894 9.10703,-17.26655 15.43823,-25.21309 12.36794,-15.52347 30.90429,-27.79128 49.74549,-32.92272 11.91044,-3.24385 36.69791,-3.47481 48.22641,-0.44915 16.2935,4.27592 32.16598,13.73378 42.47994,25.31216 6.20638,6.96727 16.19516,22.25698 19.66246,30.09712 l 2.766,6.25433 -15.14103,0 -15.14113,0 -1.79587,-5.407 c -2.82495,-8.50507 -11.31985,-22.08339 -18.85627,-30.1398 -9.23425,-9.87141 -19.64822,-15.15068 -31.68164,-16.06078 -24.8513,-1.87945 -42.34178,11.35505 -55.73456,42.17292 l -3.85474,8.86999 -18.64784,0.30957 -18.64789,0.30957 1.18244,-3.13293 z"
         style="fill:none;fill-opacity:1;fill-rule:nonzero;stroke:#ffffff;stroke-width:1.24076521;stroke-linejoin:miter;stroke-miterlimit:4;stroke-dasharray:none;stroke-opacity:1"
         inkscape:connector-curvature="0" />
      <path
         id="path5647"
         d="m 1040.1128,514.32482 c -0.3883,-1.94105 -0.7087,-6.89598 -0.7121,-11.01105 -0.012,-9.41591 -1.5165,-14.904 -5.3487,-19.45836 -5.4345,-6.45843 -11.8415,-7.85943 -24.2354,-5.29948 -5.7068,1.17872 -6.8123,1.12077 -8.3719,-0.43862 -2.42446,-2.42452 -1.1338,-6.0169 2.708,-7.53733 1.6875,-0.66785 9.353,-2.77778 17.0346,-4.6888 7.6814,-1.91102 21.0325,-5.73897 29.6691,-8.50656 8.6365,-2.76765 16.6905,-5.03204 17.8977,-5.03204 3.5249,0 4.5329,3.60491 4.5329,16.20879 0,6.51197 0.3084,12.64377 0.6856,13.62627 1.1199,2.91828 4.0971,2.06854 10.0639,-2.87225 26.4039,-21.86402 55.0913,-30.75999 81.7646,-25.35528 27.0099,5.47289 39.8991,22.25188 43.66,56.83567 l 0.7675,7.05834 -17.0644,0 -17.0644,0 -0.6863,-3.10564 c -3.9291,-17.77557 -7.1216,-24.98727 -14.1906,-32.05622 -7.4371,-7.43721 -13.1234,-9.4586 -26.387,-9.38024 -17.7465,0.10484 -30.6917,5.64175 -46.0125,19.68052 -7.3546,6.73909 -14.407,17.89183 -14.407,22.7833 0,1.92504 -1.2388,2.07828 -16.7988,2.07828 l -16.799,0 -0.7058,-3.52917 z"
         style="fill:none;fill-opacity:1;fill-rule:nonzero;stroke:#ffffff;stroke-width:1.24076521;stroke-linejoin:miter;stroke-miterlimit:4;stroke-dasharray:none;stroke-opacity:1"
         inkscape:connector-curvature="0" />
      <path
         id="path5645"
         d="m 1269.5359,500.63161 c -0.2737,-9.47231 -0.8976,-18.13055 -1.3869,-19.24048 -1.8124,-4.11159 -6.6108,-5.32182 -21.1702,-5.33926 -17.5665,-0.0186 -22.6042,-2.26483 -20.8425,-9.28334 0.8734,-3.48004 1.9448,-3.95953 14.7558,-6.60404 13.4919,-2.78508 21.2802,-6.77197 29.4644,-15.08292 12.2338,-12.42366 17.955,-27.38251 19.3675,-50.64022 0.6025,-9.92029 1.1822,-12.8941 2.8353,-14.54723 2.7055,-2.70555 6.0357,-2.63756 8.8539,0.18053 2.1617,2.16173 2.2587,3.76449 2.2587,37.32427 0,36.97604 0.3859,40.05326 5.3226,42.42542 1.11,0.53352 16.5767,1.23022 34.3703,1.54854 29.7637,0.53228 32.5423,0.7509 34.7272,2.73011 3.0316,2.74625 3.0317,6.50285 3e-4,9.24929 -2.1863,1.98082 -5.0297,2.20204 -35.8565,2.79035 -18.415,0.35114 -33.6164,0.73255 -33.7808,0.84702 -0.1644,0.11414 -1.306,1.85972 -2.5368,3.87838 -1.9633,3.21997 -2.2384,5.71434 -2.2421,20.32807 l 0,16.65771 -16.8193,0 -16.8195,0 -0.4975,-17.22238 z"
         style="fill:none;fill-opacity:1;fill-rule:nonzero;stroke:#ffffff;stroke-width:1.24076521;stroke-linejoin:miter;stroke-miterlimit:4;stroke-dasharray:none;stroke-opacity:1"
         inkscape:connector-curvature="0" />
      <path
         id="path5643"
         d="m 1424.0998,512.61436 c -0.3952,-2.88179 -0.7209,-8.59905 -0.7245,-12.70506 -0.012,-10.56902 -1.6509,-15.58822 -5.992,-18.31449 -3.0933,-1.94267 -5.1737,-2.21303 -14.7551,-1.91754 -9.7251,0.29963 -11.3166,0.0844 -12.4228,-1.67982 -1.9053,-3.03963 2.3683,-5.73345 15.6715,-9.87829 12.2118,-3.80474 33.95,-11.09318 42.7203,-14.32333 l 5.4522,-2.00805 2.1708,2.6661 c 2.0217,2.48289 2.1709,4.75317 2.1709,33.03313 l 0,30.36699 -16.7866,0 -16.7866,0 -0.7181,-5.23964 z"
         style="fill:none;fill-opacity:1;fill-rule:nonzero;stroke:#ffffff;stroke-width:1.24076521;stroke-linejoin:miter;stroke-miterlimit:4;stroke-dasharray:none;stroke-opacity:1"
         inkscape:connector-curvature="0" />
      <path
         id="path5641"
         d="m 1521.378,500.63161 c -0.2735,-9.47231 -0.8975,-18.13055 -1.3869,-19.24048 -1.8124,-4.11159 -6.6107,-5.32182 -21.1701,-5.33926 -17.5665,-0.0186 -22.6041,-2.26483 -20.8425,-9.28334 0.8735,-3.48004 1.9448,-3.95953 14.7558,-6.60404 13.4919,-2.78508 21.2803,-6.77197 29.4644,-15.08292 12.2338,-12.42366 17.9549,-27.38251 19.3675,-50.64022 0.6025,-9.92029 1.1822,-12.8941 2.8354,-14.54723 2.7054,-2.70555 6.0355,-2.63756 8.8538,0.18053 2.1617,2.16173 2.2587,3.76449 2.2587,37.32427 0,36.97604 0.3859,40.05326 5.3226,42.42542 1.11,0.53352 16.5766,1.23022 34.3704,1.54854 29.7637,0.53228 32.5422,0.7509 34.727,2.73011 3.0317,2.74625 3.0318,6.50285 4e-4,9.24929 -2.1863,1.98082 -5.0297,2.20204 -35.8564,2.79035 -18.4151,0.35114 -33.6165,0.73255 -33.7809,0.84702 -0.1644,0.11414 -1.306,1.85972 -2.5369,3.87838 -1.9632,3.21997 -2.2383,5.71434 -2.242,20.32807 l 0,16.65771 -16.8193,0 -16.8195,0 -0.4975,-17.22238 z"
         style="fill:none;fill-opacity:1;fill-rule:nonzero;stroke:#ffffff;stroke-width:1.24076521;stroke-linejoin:miter;stroke-miterlimit:4;stroke-dasharray:none;stroke-opacity:1"
         inkscape:connector-curvature="0" />
      <path
         id="path5639"
         d="m 1682.8612,507.3284 c -6.6779,-13.12494 -15.5691,-23.24543 -23.3706,-26.60151 -3.1192,-1.34183 -9.3292,-3.13138 -13.8004,-3.97678 -8.476,-1.6027 -11.1226,-3.52123 -11.1226,-8.06311 0,-1.33785 1.0695,-3.40056 2.3764,-4.58382 2.2543,-2.04088 5.0805,-2.16756 55.0239,-2.46671 56.0157,-0.33563 58.3386,-0.14144 59.6225,4.97312 1.5178,6.04761 -2.3708,8.82953 -14.7039,10.51939 -19.6476,2.69215 -24.3268,12.40349 -15.4562,32.07794 1.9164,4.25055 3.4844,7.93506 3.4844,8.18768 0,0.2525 -8.2583,0.45723 -18.3517,0.45412 l -18.3518,-0.005 -5.35,-10.51529 z"
         style="fill:none;fill-opacity:1;fill-rule:nonzero;stroke:#ffffff;stroke-width:1.24076521;stroke-linejoin:miter;stroke-miterlimit:4;stroke-dasharray:none;stroke-opacity:1"
         inkscape:connector-curvature="0" />
      <path
         id="path5637"
         d="m 1824.2963,517.48406 c 0,-0.20348 1.2705,-3.49673 2.8234,-7.31828 4.6733,-11.50109 3.2739,-22.17769 -3.5426,-27.02722 -4.5009,-3.2021 -14.3818,-5.94072 -21.4343,-5.94072 -6.312,0 -11.6972,-1.53811 -13.0979,-3.74097 -1.6207,-2.54877 -0.8788,-7.21008 1.4889,-9.35369 2.2427,-2.03064 4.9814,-2.1693 48.803,-2.47062 49.4733,-0.33996 52.1487,-0.0905 53.4212,4.97957 1.7796,7.08979 -2.5373,10.58571 -13.0709,10.58571 -12.5236,0 -24.1161,10.15964 -32.9417,28.87 l -5.5596,11.78616 -8.4448,0 c -4.6445,0 -8.4447,-0.16627 -8.4447,-0.36976 z"
         style="fill:none;fill-opacity:1;fill-rule:nonzero;stroke:#ffffff;stroke-width:1.24076521;stroke-linejoin:miter;stroke-miterlimit:4;stroke-dasharray:none;stroke-opacity:1"
         inkscape:connector-curvature="0" />
      <path
         id="path4753"
         d="m 1430.1577,382.31386 c -11.0768,-5.17033 -16.3064,-13.31043 -16.3121,-25.3904 0,-8.53292 1.7566,-13.23351 7.124,-19.01982 5.2432,-5.6526 11.1176,-8.0172 19.9168,-8.0172 8.7992,0 14.6735,2.3646 19.9167,8.0172 5.3649,5.78346 7.1278,10.48782 7.1278,19.01982 0,8.532 -1.7629,13.23636 -7.1278,19.01982 -7.3057,7.87606 -21.2222,10.76903 -30.6454,6.37058 z"
         style="fill:none;fill-opacity:1;fill-rule:nonzero;stroke:#ffffff;stroke-width:1.24076521;stroke-linejoin:miter;stroke-miterlimit:4;stroke-dasharray:none;stroke-opacity:1"
         inkscape:connector-curvature="0" />
    </g>
    <path
       style="font-style:normal;font-variant:normal;font-weight:normal;font-stretch:normal;font-size:medium;line-height:125%;font-family:'F5.6';-inkscape-font-specification:'F5.6';letter-spacing:0px;word-spacing:0px;fill:none;fill-opacity:1;stroke:#ffffff;stroke-width:1px;stroke-linecap:butt;stroke-linejoin:miter;stroke-opacity:1"
       d="m 979.30664,734.33984 c -6.94812,0.34767 -14.18235,-0.38305 -20.94531,0.34766 -0.61027,2.36221 2.15203,1.06489 3.40039,1.35352 2.32308,0.65782 7.64677,-1.7259 6.96045,1.98813 0.13177,9.7962 -0.37037,19.6431 0.25244,29.4064 2.00206,0.76217 1.7254,-0.78339 1.5293,-2.17969 0,-9.7194 0,-19.4388 0,-29.1582 3.38902,-0.43877 6.83751,0.4533 10.19726,-0.27149 0.22024,-1.38453 0.402,-1.98553 -1.39453,-1.48633 z"
       id="path4197"
       inkscape:connector-curvature="0" />
    <path
       style="font-style:normal;font-variant:normal;font-weight:normal;font-stretch:normal;font-size:medium;line-height:125%;font-family:'F5.6';-inkscape-font-specification:'F5.6';letter-spacing:0px;word-spacing:0px;fill:none;fill-opacity:1;stroke:#ffffff;stroke-width:1px;stroke-linecap:butt;stroke-linejoin:miter;stroke-opacity:1"
       d="m 1013.252,734.3125 c -0.7447,0.94105 0.4357,2.63561 -0.1387,3.82812 0,3.84571 0,7.69141 0,11.53711 -6.3262,0 -12.6524,0 -18.97853,0 -0.2098,-5.09167 0.2543,-10.2446 -0.15235,-15.29687 -1.64027,-0.55029 -2.27113,0.54608 -1.7476,2.01484 0.33906,10.22712 -0.1295,20.62739 0.10893,30.74883 2.30965,1.67439 1.86157,-1.87481 1.77344,-3.34765 -0.0152,-4.1595 0.003,-8.31901 -0.004,-12.47852 6.32422,0 12.64842,0 18.97262,0 0.3384,5.36064 -0.4766,10.90178 0.3223,16.11133 2.3485,0.87911 1.4188,-1.3352 1.4746,-2.71485 -0.1051,-10.10986 0.3959,-20.23255 -0.2519,-30.33203 -0.4567,-0.0542 -0.9183,-0.11205 -1.3789,-0.0703 z"
       id="path4199"
       inkscape:connector-curvature="0" />
    <path
       style="font-style:normal;font-variant:normal;font-weight:normal;font-stretch:normal;font-size:medium;line-height:125%;font-family:'F5.6';-inkscape-font-specification:'F5.6';letter-spacing:0px;word-spacing:0px;fill:none;fill-opacity:1;stroke:#ffffff;stroke-width:1px;stroke-linecap:butt;stroke-linejoin:miter;stroke-opacity:1"
       d="m 1045.9434,734.33594 c -5.0518,0.28651 -10.1208,-0.21461 -15.168,0.20703 0.057,10.91461 -0.1907,21.8312 0.09,32.74414 5.7727,0.10963 11.5995,0.36436 17.334,-0.12109 0.9194,-2.55086 -1.9043,-1.04123 -3.1894,-1.40821 -4.153,0 -8.306,0 -12.459,0 0,-4.80013 0,-9.60026 0,-14.40039 4.3981,-0.39769 8.9372,0.5097 13.248,-0.32812 0.8239,-2.42065 -1.9012,-1.02572 -3.1894,-1.35157 -3.3529,0 -6.7058,0 -10.0586,0 0,-4.53645 0,-9.07291 0,-13.60937 4.7965,-0.33107 9.6269,0.42767 14.4023,-0.27344 0.01,-0.81545 0.6397,-2.18427 -1.0097,-1.45898 z"
       id="path4201"
       inkscape:connector-curvature="0" />
    <path
       style="font-style:normal;font-variant:normal;font-weight:normal;font-stretch:normal;font-size:medium;line-height:125%;font-family:'F5.6';-inkscape-font-specification:'F5.6';letter-spacing:0px;word-spacing:0px;fill:none;fill-opacity:1;stroke:#ffffff;stroke-width:1px;stroke-linecap:butt;stroke-linejoin:miter;stroke-opacity:1"
       d="m 1075.8906,734.3125 c -3.3179,-0.34642 -3.3449,3.15704 -3.2304,5.39453 -0.3032,3.44674 1.3596,6.77129 4.3984,8.4707 3.4175,3.20441 7.4315,5.88331 10.4629,9.43946 0.9709,2.17051 1.8718,5.44872 0.1699,7.39453 -3.0642,2.00879 -6.9632,-0.13423 -10.3223,0.86523 -2.4197,0.65632 -5.0296,-1.51921 -3.9589,-4.05664 0.5965,-1.53255 -0.9245,-1.15504 -1.7872,-1.1289 -0.2291,2.30749 -0.7701,6.51667 2.4668,6.82226 5.0741,-0.82519 10.5408,1.05806 15.4141,-0.91797 1.365,-2.90683 0.8403,-6.55371 -0.1191,-9.4707 -2.6867,-4.08027 -7.2846,-6.34139 -10.6513,-9.77338 -2.673,-1.90189 -4.8221,-4.96174 -4.3585,-8.34967 -0.4337,-2.77461 3.1842,-3.73689 5.2676,-2.83984 2.5064,-0.0761 6.3109,-1.369 7.5332,1.78125 0.4721,1.32471 -0.621,4.13099 1.7051,3.01758 0.2603,-2.08108 0.8381,-6.68996 -2.5176,-6.52344 -3.4917,-0.0929 -6.9875,0.0146 -10.4727,-0.125 z"
       id="path4203"
       inkscape:connector-curvature="0" />
    <path
       style="font-style:normal;font-variant:normal;font-weight:normal;font-stretch:normal;font-size:medium;line-height:125%;font-family:'F5.6';-inkscape-font-specification:'F5.6';letter-spacing:0px;word-spacing:0px;fill:none;fill-opacity:1;stroke:#ffffff;stroke-width:1px;stroke-linecap:butt;stroke-linejoin:miter;stroke-opacity:1"
       d="m 1113.2324,734.33789 c -3.5743,0.36778 -7.4129,-0.38419 -10.832,0.32813 -0.5924,2.42866 2.1021,0.51591 3.2383,1.46679 3.2778,1.39926 1.4246,5.40159 1.7344,8.0018 -0.1434,7.11795 0.055,14.23721 -0.031,21.35562 -1.4012,1.20702 -3.902,-0.77756 -4.8477,0.69336 -0.7336,2.35784 1.8745,0.72294 3.082,1.16109 2.7875,-0.0587 5.872,0.52016 8.4415,-0.28609 0.3839,-1.20747 -0.3033,-1.81161 -1.293,-1.07031 -2.973,0.74567 -4.3787,-2.89944 -3.6335,-5.26531 0.1723,-8.13856 -0.02,-16.27898 0.055,-24.41828 1.4122,-1.13258 3.6935,0.60777 4.791,-0.56836 -0.067,-0.59154 0.5841,-1.99656 -0.7051,-1.39844 z"
       id="path4205"
       inkscape:connector-curvature="0" />
    <path
       style="font-style:normal;font-variant:normal;font-weight:normal;font-stretch:normal;font-size:medium;line-height:125%;font-family:'F5.6';-inkscape-font-specification:'F5.6';letter-spacing:0px;word-spacing:0px;fill:none;fill-opacity:1;stroke:#ffffff;stroke-width:1px;stroke-linecap:butt;stroke-linejoin:miter;stroke-opacity:1"
       d="m 1128.2695,734.35156 c -1.1536,2.17179 0.3295,4.8466 -0.3075,7.21077 0.098,8.67929 -0.3464,17.55991 0.2314,26.11345 2.3297,0.90947 1.4876,-1.31211 1.5449,-2.67969 0,-9.18945 0,-18.3789 0,-27.56836 5.7797,6.27299 12.5178,11.78472 17.8008,18.4336 0.2895,3.85922 -0.5177,7.91418 0.2988,11.57226 2.2497,0.82228 1.4685,-1.31529 1.4687,-2.71484 -0.1057,-10.11635 0.3965,-20.24557 -0.25,-30.35156 -1.0497,-0.29806 -2.1608,-0.12962 -1.5175,1.17187 0,5.79427 0,11.58854 0,17.38282 -6.6127,-5.94834 -12.3434,-13.22776 -19.2696,-18.57032 z"
       id="path4207"
       inkscape:connector-curvature="0" />
    <path
       style="font-style:normal;font-variant:normal;font-weight:normal;font-stretch:normal;font-size:medium;line-height:125%;font-family:'F5.6';-inkscape-font-specification:'F5.6';letter-spacing:0px;word-spacing:0px;fill:none;fill-opacity:1;stroke:#ffffff;stroke-width:1px;stroke-linecap:butt;stroke-linejoin:miter;stroke-opacity:1"
       d="m 1167.2949,734.41211 c -3.5489,0.0718 -2.526,4.7362 -2.5555,7.07601 0.2857,8.30084 -0.6589,16.70807 0.4794,24.92985 2.7232,2.22069 6.5116,0.35767 9.6914,0.86133 2.9311,-0.11066 6.7669,1.18676 9.0996,-1.00977 1.4267,-5.20184 -0.1771,-10.66294 0.664,-15.92187 -0.9814,-1.6206 -3.4292,-0.12578 -5.0156,-0.70508 -1.3807,0.13483 -5.244,-0.82061 -4.0859,1.82031 2.4553,-0.4764 7.3888,-0.92041 7.4297,2.77539 -0.9737,3.7718 0.8122,7.94472 -1.1582,11.51953 -5.1062,0 -10.2123,0 -15.3184,0 0,-9.9069 0,-19.8138 0,-29.7207 4.9173,0 9.8346,0 14.7519,0 0.9644,1.54292 -0.4043,3.62814 0.4297,4.97851 1.0846,0.23299 2.275,0.19188 1.6572,-1.2233 0.3083,-2.17285 0,-5.97981 -3.1064,-5.38123 -4.321,-0.0151 -8.6419,-0.0124 -12.9629,0.001 z"
       id="path4209"
       inkscape:connector-curvature="0" />
    <path
       style="font-style:normal;font-variant:normal;font-weight:normal;font-stretch:normal;font-size:medium;line-height:125%;font-family:'F5.6';-inkscape-font-specification:'F5.6';letter-spacing:0px;word-spacing:0px;fill:none;fill-opacity:1;stroke:#ffffff;stroke-width:1px;stroke-linecap:butt;stroke-linejoin:miter;stroke-opacity:1"
       d="m 1218.6719,734.31836 c -0.6961,0.97897 0.4303,2.6217 -0.127,3.82617 0,9.20443 0,18.40886 0,27.61328 -5.7975,0 -11.595,0 -17.3926,0 -0.1353,-10.45925 0.2172,-20.92258 -0.1562,-31.3789 -1.1976,-0.36411 -2.3595,0.13742 -1.7457,1.5131 0.5833,10.1022 -0.5785,20.36522 0.4937,30.3658 2.4175,2.48918 6.2066,0.51648 9.2227,1.03711 3.528,-0.21549 7.6756,1.14867 10.7832,-0.8418 1.6001,-4.67601 -0.049,-9.62745 0.5446,-14.45505 -0.023,-5.86836 0.3841,-11.79077 -0.2321,-17.61135 -0.4611,-0.0488 -0.926,-0.11141 -1.3906,-0.0684 z"
       id="path4211"
       inkscape:connector-curvature="0" />
    <path
       style="font-style:normal;font-variant:normal;font-weight:normal;font-stretch:normal;font-size:medium;line-height:125%;font-family:'F5.6';-inkscape-font-specification:'F5.6';letter-spacing:0px;word-spacing:0px;fill:none;fill-opacity:1;stroke:#ffffff;stroke-width:1px;stroke-linecap:butt;stroke-linejoin:miter;stroke-opacity:1"
       d="m 1236.4648,734.2793 c -1.2107,1.24142 0.364,3.69698 -0.2436,5.3143 -0.1338,9.23048 -0.1689,18.46376 0.035,27.69351 5.7726,0.10966 11.5994,0.36435 17.3339,-0.12109 0.913,-2.54435 -1.9066,-1.04517 -3.1894,-1.40821 -4.1504,0 -8.3008,0 -12.4512,0 -0.1744,-10.4424 0.2945,-21.04062 -0.2168,-31.38476 -0.4383,0.12085 -0.8378,-0.12731 -1.2676,-0.0937 z"
       id="path4213"
       inkscape:connector-curvature="0" />
    <path
       style="font-style:normal;font-variant:normal;font-weight:normal;font-stretch:normal;font-size:medium;line-height:125%;font-family:'F5.6';-inkscape-font-specification:'F5.6';letter-spacing:0px;word-spacing:0px;fill:none;fill-opacity:1;stroke:#ffffff;stroke-width:1px;stroke-linecap:butt;stroke-linejoin:miter;stroke-opacity:1"
       d="m 1275.7012,735.18555 c 1.8659,6.43096 3.7313,12.86211 5.5976,19.29297 -4.3724,0 -8.7448,0 -13.1172,0 1.9026,-6.73973 4.1011,-13.77214 5.8184,-20.33008 -3.7164,1.58491 -2.914,6.4709 -4.4939,9.5817 -2.1721,7.95085 -5.0535,15.7044 -6.7815,23.76205 1.6945,0.46073 2.403,-0.91069 2.3945,-2.38404 1.094,-2.86754 1.4425,-6.7274 2.9903,-8.99096 4.5299,0 9.0599,0 13.5898,0 1.5561,3.64937 1.6089,7.83585 3.7051,11.26562 1.8099,0.53221 1.9689,-0.10582 1.04,-1.73489 -3.2971,-10.27166 -5.5087,-20.97453 -9.667,-30.92136 -0.8281,-0.51821 -1.9544,-1.43509 -1.0761,0.45899 z"
       id="path4215"
       inkscape:connector-curvature="0" />
    <path
       style="font-style:normal;font-variant:normal;font-weight:normal;font-stretch:normal;font-size:medium;line-height:125%;font-family:'F5.6';-inkscape-font-specification:'F5.6';letter-spacing:0px;word-spacing:0px;fill:none;fill-opacity:1;stroke:#ffffff;stroke-width:1px;stroke-linecap:butt;stroke-linejoin:miter;stroke-opacity:1"
       d="m 1313.1484,734.31836 c -4.4288,0.43513 -8.8845,-0.24058 -13.3105,0.21094 0.067,10.95755 -0.215,21.95435 0.1094,32.88672 1.5409,0.55963 2.2008,-0.16549 1.666,-1.66016 0,-4.81445 0,-9.62891 0,-14.44336 3.0734,0.011 7.9822,-0.99276 9.1269,2.93359 2.2887,4.34393 3.948,9.45393 7.1973,13.04297 2.9079,1.06841 0.3889,-1.65036 -0.164,-3.05447 -2.3574,-4.41594 -4.7342,-8.82253 -7.0997,-13.23459 2.2313,0.83612 7.114,0.8154 6.5,-2.69141 -0.5011,-4.42237 1.2814,-9.47555 -0.9785,-13.42187 -0.9127,-0.54593 -2.0126,-0.5886 -3.0469,-0.56836 z m -11.0351,1.71875 c 4.4336,0 8.8672,0 13.3008,0 0,4.54687 0,9.09375 0,13.64062 -4.6003,0 -9.2006,0 -13.8008,0 0,-4.54687 0,-9.09375 0,-13.64062 l 0.5,0 z"
       id="path4217"
       inkscape:connector-curvature="0" />
    <path
       style="font-style:normal;font-variant:normal;font-weight:normal;font-stretch:normal;font-size:medium;line-height:125%;font-family:'F5.6';-inkscape-font-specification:'F5.6';letter-spacing:0px;word-spacing:0px;fill:none;fill-opacity:1;stroke:#ffffff;stroke-width:1px;stroke-linecap:butt;stroke-linejoin:miter;stroke-opacity:1"
       d="m 1342.0605,734.33789 c -3.5742,0.36778 -7.4129,-0.38419 -10.832,0.32813 -0.5924,2.42866 2.1021,0.51591 3.2383,1.46679 3.2771,1.39931 1.4249,5.40195 1.7345,8.0018 -0.1434,7.11795 0.055,14.23721 -0.031,21.35562 -1.4012,1.20701 -3.9019,-0.77753 -4.8476,0.69336 -0.7461,2.38265 1.8862,0.71069 3.082,1.16109 2.7874,-0.0587 5.8719,0.52016 8.4414,-0.28609 0.384,-1.20747 -0.3032,-1.81161 -1.293,-1.07031 -2.9725,0.74565 -4.3787,-2.89992 -3.6335,-5.26531 0.1723,-8.13856 -0.02,-16.27898 0.055,-24.41828 1.4122,-1.13258 3.6935,0.60777 4.791,-0.56836 -0.067,-0.59154 0.5842,-1.99656 -0.7051,-1.39844 z"
       id="path4219"
       inkscape:connector-curvature="0" />
    <path
       style="font-style:normal;font-variant:normal;font-weight:normal;font-stretch:normal;font-size:medium;line-height:125%;font-family:'F5.6';-inkscape-font-specification:'F5.6';letter-spacing:0px;word-spacing:0px;fill:none;fill-opacity:1;stroke:#ffffff;stroke-width:1px;stroke-linecap:butt;stroke-linejoin:miter;stroke-opacity:1"
       d="m 1373.3691,734.33984 c -6.9481,0.34767 -14.1823,-0.38305 -20.9453,0.34766 -0.6102,2.36221 2.1521,1.06489 3.4004,1.35352 2.3231,0.65782 7.6468,-1.7259 6.9605,1.98813 0.1317,9.7962 -0.3704,19.6431 0.2524,29.4064 2.0021,0.76217 1.7254,-0.78339 1.5293,-2.17969 0,-9.7194 0,-19.4388 0,-29.1582 3.389,-0.43877 6.8375,0.4533 10.1973,-0.27149 0.2202,-1.38453 0.402,-1.98553 -1.3946,-1.48633 z"
       id="path4221"
       inkscape:connector-curvature="0" />
    <path
       style="font-style:normal;font-variant:normal;font-weight:normal;font-stretch:normal;font-size:medium;line-height:125%;font-family:'F5.6';-inkscape-font-specification:'F5.6';letter-spacing:0px;word-spacing:0px;fill:none;fill-opacity:1;stroke:#ffffff;stroke-width:1px;stroke-linecap:butt;stroke-linejoin:miter;stroke-opacity:1"
       d="m 1403.4062,734.33203 c -2.3665,0.86922 -1.9415,4.27319 -3.6132,5.92565 -1.9636,3.92649 -3.9272,7.8529 -5.8907,11.77943 -3.4192,-5.69629 -5.4281,-12.52257 -9.4609,-17.64063 -2.7413,-0.69028 -0.2195,1.4494 0.097,2.77679 2.7362,5.78936 6.1961,11.38612 8.3796,17.35361 0.2203,4.28601 -0.5177,8.72593 0.287,12.91062 2.4322,0.9161 1.2957,-1.59743 1.5644,-2.91797 -0.2152,-5.51693 -0.8295,-11.62964 2.6952,-16.33777 2.2162,-4.55967 5.1379,-9.3618 6.7287,-13.85559 -0.2622,-0.0133 -0.5253,-0.0199 -0.7872,0.006 z"
       id="path4223"
       inkscape:connector-curvature="0" />
    <path
       style="font-style:normal;font-variant:normal;font-weight:normal;font-stretch:normal;font-size:medium;line-height:125%;font-family:'F5.6';-inkscape-font-specification:'F5.6';letter-spacing:0px;word-spacing:0px;fill:none;fill-opacity:1;stroke:#ffffff;stroke-width:1px;stroke-linecap:butt;stroke-linejoin:miter;stroke-opacity:1"
       d="m 1438.1543,734.33789 c -3.5743,0.36778 -7.4129,-0.38419 -10.832,0.32813 -0.5928,2.42956 2.1025,0.51465 3.2382,1.46679 3.2772,1.39931 1.425,5.40195 1.7345,8.0018 -0.1434,7.11795 0.055,14.23721 -0.031,21.35562 -1.4013,1.20701 -3.902,-0.77753 -4.8477,0.69336 -0.746,2.38265 1.8863,0.71069 3.082,1.16109 2.7875,-0.0587 5.8719,0.52016 8.4415,-0.28609 0.3838,-1.20664 -0.3031,-1.81268 -1.293,-1.07031 -2.973,0.74567 -4.3788,-2.89944 -3.6335,-5.26531 0.1723,-8.13856 -0.02,-16.27898 0.055,-24.41828 1.4121,-1.13258 3.6935,0.60777 4.791,-0.56836 -0.067,-0.59154 0.5841,-1.99656 -0.7051,-1.39844 z"
       id="path4225"
       inkscape:connector-curvature="0" />
    <path
       style="font-style:normal;font-variant:normal;font-weight:normal;font-stretch:normal;font-size:medium;line-height:125%;font-family:'F5.6';-inkscape-font-specification:'F5.6';letter-spacing:0px;word-spacing:0px;fill:none;fill-opacity:1;stroke:#ffffff;stroke-width:1px;stroke-linecap:butt;stroke-linejoin:miter;stroke-opacity:1"
       d="m 1455.5781,734.3125 c -3.3179,-0.34642 -3.3449,3.15704 -3.2304,5.39453 -0.3032,3.44674 1.3596,6.77129 4.3984,8.4707 3.4175,3.20441 7.4315,5.88331 10.4629,9.43946 0.9709,2.17051 1.8718,5.44872 0.1699,7.39453 -3.0642,2.00879 -6.9632,-0.13423 -10.3223,0.86523 -2.4197,0.65632 -5.0296,-1.51921 -3.9589,-4.05664 0.5965,-1.53255 -0.9245,-1.15504 -1.7872,-1.1289 -0.2291,2.30749 -0.7701,6.51667 2.4668,6.82226 5.0741,-0.82519 10.5408,1.05806 15.4141,-0.91797 1.365,-2.90683 0.8403,-6.55371 -0.1191,-9.4707 -2.6867,-4.08027 -7.2846,-6.34139 -10.6513,-9.77338 -2.673,-1.90189 -4.8221,-4.96174 -4.3585,-8.34967 -0.4337,-2.77461 3.1842,-3.73689 5.2676,-2.83984 2.5064,-0.0761 6.3109,-1.369 7.5332,1.78125 0.4721,1.32471 -0.621,4.13099 1.7051,3.01758 0.2603,-2.08108 0.8381,-6.68996 -2.5176,-6.52344 -3.4917,-0.0929 -6.9875,0.0146 -10.4727,-0.125 z"
       id="path4227"
       inkscape:connector-curvature="0" />
    <path
       style="font-style:normal;font-variant:normal;font-weight:normal;font-stretch:normal;font-size:medium;line-height:125%;font-family:'F5.6';-inkscape-font-specification:'F5.6';letter-spacing:0px;word-spacing:0px;fill:none;fill-opacity:1;stroke:#ffffff;stroke-width:1px;stroke-linecap:butt;stroke-linejoin:miter;stroke-opacity:1"
       d="m 1496.3945,734.35156 c -1.1536,2.17179 0.3295,4.8466 -0.3075,7.21077 0.098,8.67929 -0.3464,17.55991 0.2314,26.11345 2.3297,0.90947 1.4876,-1.31211 1.5449,-2.67969 0,-9.18945 0,-18.3789 0,-27.56836 5.7797,6.27299 12.5178,11.78472 17.8008,18.4336 0.2895,3.85922 -0.5177,7.91418 0.2988,11.57226 2.2497,0.82228 1.4685,-1.31529 1.4687,-2.71484 -0.1057,-10.11635 0.3965,-20.24557 -0.25,-30.35156 -1.0497,-0.29806 -2.1608,-0.12962 -1.5175,1.17187 0,5.79427 0,11.58854 0,17.38282 -6.6127,-5.94834 -12.3434,-13.22776 -19.2696,-18.57032 z"
       id="path4229"
       inkscape:connector-curvature="0" />
    <path
       style="font-style:normal;font-variant:normal;font-weight:normal;font-stretch:normal;font-size:medium;line-height:125%;font-family:'F5.6';-inkscape-font-specification:'F5.6';letter-spacing:0px;word-spacing:0px;fill:none;fill-opacity:1;stroke:#ffffff;stroke-width:1px;stroke-linecap:butt;stroke-linejoin:miter;stroke-opacity:1"
       d="m 1548.4434,734.33594 c -5.0518,0.28651 -10.1208,-0.21461 -15.168,0.20703 0.057,10.91461 -0.1907,21.8312 0.09,32.74414 5.7727,0.10963 11.5995,0.36436 17.334,-0.12109 0.9194,-2.55086 -1.9043,-1.04123 -3.1894,-1.40821 -4.153,0 -8.306,0 -12.459,0 0,-4.80013 0,-9.60026 0,-14.40039 4.3981,-0.39769 8.9372,0.5097 13.248,-0.32812 0.8239,-2.42065 -1.9012,-1.02572 -3.1894,-1.35157 -3.3529,0 -6.7058,0 -10.0586,0 0,-4.53645 0,-9.07291 0,-13.60937 4.7965,-0.33107 9.6269,0.42767 14.4023,-0.27344 0.01,-0.81545 0.6397,-2.18427 -1.0097,-1.45898 z"
       id="path4231"
       inkscape:connector-curvature="0" />
    <path
       style="font-style:normal;font-variant:normal;font-weight:normal;font-stretch:normal;font-size:medium;line-height:125%;font-family:'F5.6';-inkscape-font-specification:'F5.6';letter-spacing:0px;word-spacing:0px;fill:none;fill-opacity:1;stroke:#ffffff;stroke-width:1px;stroke-linecap:butt;stroke-linejoin:miter;stroke-opacity:1"
       d="m 1573.9824,735.18555 c 1.866,6.43096 3.7313,12.86211 5.5977,19.29297 -4.3724,0 -8.7448,0 -13.1172,0 1.9026,-6.73973 4.1011,-13.77214 5.8183,-20.33008 -3.7167,1.58481 -2.9131,6.47112 -4.4945,9.58154 -2.1713,7.95111 -5.0528,15.70455 -6.7808,23.76221 1.6945,0.46073 2.4029,-0.91069 2.3945,-2.38404 1.0939,-2.86754 1.4424,-6.7274 2.9902,-8.99096 4.53,0 9.0599,0 13.5899,0 1.5561,3.64937 1.6089,7.83585 3.705,11.26562 1.8114,0.53336 1.9667,-0.10772 1.0443,-1.73821 -3.2462,-10.23677 -5.5801,-20.82945 -9.5482,-30.7989 -0.7065,-0.76889 -2.2146,-1.26552 -1.1992,0.33985 z"
       id="path4233"
       inkscape:connector-curvature="0" />
    <path
       style="font-style:normal;font-variant:normal;font-weight:normal;font-stretch:normal;font-size:medium;line-height:125%;font-family:'F5.6';-inkscape-font-specification:'F5.6';letter-spacing:0px;word-spacing:0px;fill:none;fill-opacity:1;stroke:#ffffff;stroke-width:1px;stroke-linecap:butt;stroke-linejoin:miter;stroke-opacity:1"
       d="m 1611.4355,734.31836 c -4.4308,0.43509 -8.8884,-0.24052 -13.3164,0.21094 0.064,10.95767 -0.2094,21.94834 0.1036,32.88476 1.0142,0.2908 2.4106,0.26718 1.6718,-1.1582 0,-4.98112 0,-9.96224 0,-14.94336 3.075,0.01 7.9911,-0.99216 9.1289,2.94141 2.2487,4.35946 4.0595,9.46436 7.1543,13.08789 2.8233,0.88924 0.6804,-1.25805 0.078,-2.72489 -2.3993,-4.54038 -4.8837,-9.06015 -7.2907,-13.6091 2.2221,0.82759 7.0929,0.79271 6.4903,-2.69922 -0.497,-4.42509 1.2754,-9.41335 -0.9824,-13.41992 -0.9067,-0.54663 -2.007,-0.59151 -3.0372,-0.57031 z m -11.041,1.71875 c 4.433,0 8.8659,0 13.2989,0 0,4.54687 0,9.09375 0,13.64062 -4.5997,0 -9.1993,0 -13.7989,0 0,-4.54687 0,-9.09375 0,-13.64062 l 0.5,0 z"
       id="path4235"
       inkscape:connector-curvature="0" />
    <path
       style="font-style:normal;font-variant:normal;font-weight:normal;font-stretch:normal;font-size:medium;line-height:125%;font-family:'F5.6';-inkscape-font-specification:'F5.6';letter-spacing:0px;word-spacing:0px;fill:none;fill-opacity:1;stroke:#ffffff;stroke-width:1px;stroke-linecap:butt;stroke-linejoin:miter;stroke-opacity:1"
       d="m 1628.0371,765.43945 c -1.9193,-0.72161 -2.2261,2.55769 -0.291,2.12891 0.9623,0.49225 1.3029,-2.53564 0.291,-2.12891 z"
       id="path4237"
       inkscape:connector-curvature="0" />
    <flowRoot
       xml:space="preserve"
       id="flowRoot5904"
       style="fill:black;stroke:none;stroke-opacity:1;stroke-width:1px;stroke-linejoin:miter;stroke-linecap:butt;fill-opacity:1;font-family:sans-serif;font-style:normal;font-weight:normal;font-size:40px;line-height:125%;letter-spacing:0px;word-spacing:0px"><flowRegion
         id="flowRegion5906"><rect
           id="rect5908"
           width="843.46027"
           height="159.41969"
           x="753.99005"
           y="844.93732" /></flowRegion><flowPara
         id="flowPara5910"></flowPara></flowRoot>  </g>
</svg>
